<?xml version="1.0" encoding="UTF-8"?>
<!DOCTYPE svg PUBLIC "-//W3C//DTD SVG 1.1//EN" "http://www.w3.org/Graphics/SVG/1.1/DTD/svg11.dtd">
<!-- Creator: CorelDRAW -->
<svg xmlns="http://www.w3.org/2000/svg" xml:space="preserve" width="22.0882mm" height="5.5222mm" version="1.1" style="shape-rendering:geometricPrecision; text-rendering:geometricPrecision; image-rendering:optimizeQuality; fill-rule:evenodd; clip-rule:evenodd"
viewBox="0 0 334.47 83.62"
 xmlns:xlink="http://www.w3.org/1999/xlink"
 xmlns:xodm="http://www.corel.com/coreldraw/odm/2003">
 <defs>
  <style type="text/css">
   <![CDATA[
    .fil0 {fill:#5301DA}
   ]]>
  </style>
 </defs>
 <g id="Capa_x0020_1">
  <metadata id="CorelCorpID_0Corel-Layer"/>
  <path class="fil0" d="M250.85 83.62l83.62 -83.62 -50.33 0 -83.62 83.62 50.33 0zm-11.99 -47.2l-101.22 0c-30.85,0 -36.25,1.64 -49.46,14.85 -12.36,12.36 -32.43,32.35 -32.43,32.35l43.85 0 10.46 -10.46c6.88,-6.88 10.43,-7.59 24.87,-7.59l74.79 0 29.15 -29.15zm-152.04 8.89c-9.13,8.61 -28.98,27.9 -39.69,38.32l-47.14 0c0,0 37.77,-37.67 58.77,-58.33 21.63,-20.59 32.42,-25.29 72.09,-25.29l144.42 0 -31.27 31.27 -110.22 0c-27.88,0 -34.14,1.93 -46.96,14.03z"/>
 </g>
</svg>
