<?xml version="1.0" encoding="UTF-8"?>
<!DOCTYPE svg PUBLIC "-//W3C//DTD SVG 1.1//EN" "http://www.w3.org/Graphics/SVG/1.1/DTD/svg11.dtd">
<!-- Creator: CorelDRAW -->
<svg xmlns="http://www.w3.org/2000/svg" xml:space="preserve" width="11.6454mm" height="3.669mm" version="1.1" style="shape-rendering:geometricPrecision; text-rendering:geometricPrecision; image-rendering:optimizeQuality; fill-rule:evenodd; clip-rule:evenodd"
viewBox="0 0 23.06 7.27"
 xmlns:xlink="http://www.w3.org/1999/xlink"
 xmlns:xodm="http://www.corel.com/coreldraw/odm/2003">
 <defs>
  <style type="text/css">
   <![CDATA[
    .fil0 {fill:#4700B8}
   ]]>
  </style>
 </defs>
 <g id="Capa_x0020_1">
  <metadata id="CorelCorpID_0Corel-Layer"/>
  <path class="fil0" d="M15.24 7.19c-0.01,-0.37 -0.08,-0.21 0.01,-0.62 -0.34,-0.05 -7.67,0.02 -8.39,0.02l-2.86 0.01c-0.85,-0.08 0.04,-1.15 -0.94,-1.87 -0.81,-0.6 -2.19,-0.49 -2.43,-1.79 -0.2,-1.03 0.74,-2.01 1.95,-2.25 0.58,-0.12 3.24,-0.08 4.16,-0.08 0.48,-0 0.88,0.03 1.02,0.41 0.28,0.73 -0.69,1.33 -1.36,1.34 -0.95,0.01 -1.91,0.01 -2.86,0.02 -1.2,0 -1.08,1.23 -0.63,1.58 0.22,0.17 0.59,0.41 0.84,0.57 1.29,0.82 1.17,1.07 2.88,1.34 0.37,0.06 1,0.01 1.39,0.01 1.56,-0.01 1.24,-0.86 1.31,-1.53 0.04,-0.37 0.3,-0.7 0.48,-0.94 0.4,-0.56 0.75,-1.1 1.15,-1.67 0.42,-0.59 0.91,-1.15 1.82,-0.6l5.33 3.16c0.6,0.35 1.18,0.68 1.77,1.05 0.95,0.58 1.63,-0.02 1.64,-0.73 0.03,-1.57 -1.1,-1.93 -1.99,-2.26 -0.4,-0.15 -0.77,-0.16 -0.84,-0.57 -0.08,-0.45 0.21,-0.77 0.63,-0.74 0.21,0.01 1.79,0.56 2.13,0.67 0.44,0.14 0.7,0.25 0.86,0.59 0.15,0.32 0.07,2.22 0.08,2.73 0,0.55 0,0.73 -0.29,1.1 -0.22,0.27 -0.57,0.4 -1.06,0.4 -1.87,0 -3.77,-0.01 -5.64,0.02 -0.07,0.18 -0.03,0.43 -0.03,0.64 0.81,0.02 5.4,0.02 6.02,-0.03 0.83,-0.06 1.45,-0.68 1.62,-1.4 0.12,-0.48 0.05,-2.36 0.04,-2.99 -0,-0.98 -0.57,-1.41 -1.38,-1.66 -0.47,-0.14 -1.96,-0.71 -2.34,-0.71 -1.25,-0.01 -1.65,1.37 -0.92,2.13 0.16,0.17 0.24,0.19 0.49,0.28 0.71,0.25 1.61,0.41 1.87,1.16 0.12,0.36 0.25,1.09 -0.31,0.95 -0.16,-0.04 -5.62,-3.31 -5.72,-3.37 -0.4,-0.23 -1.62,-0.99 -1.92,-1.11 -0.92,-0.4 -1.74,0.02 -2.15,0.58 -0.21,0.29 -0.4,0.59 -0.61,0.88 -0.22,0.31 -0.42,0.61 -0.63,0.91 -0.21,0.32 -0.4,0.54 -0.58,0.91 -0.29,0.62 -0.07,0.82 -0.19,1.34 -0.22,0.28 -0.86,0.18 -1.28,0.19 -0.59,0 -0.82,-0.03 -1.37,-0.14 -0.61,-0.12 -0.58,-0.17 -1,-0.45 -0.31,-0.21 -0.58,-0.4 -0.88,-0.61 -0.17,-0.12 -0.76,-0.49 -0.84,-0.61 -0.11,-0.15 -0.13,-0.38 0.13,-0.42 1.23,-0.18 4.74,0.7 5.01,-1.64 0.05,-0.44 -0.14,-0.86 -0.35,-1.05 -0.3,-0.28 -0.63,-0.33 -1.16,-0.33 -0.98,0 -1.96,0 -2.94,0 -0.97,0 -1.74,0 -2.51,0.43 -0.6,0.33 -1.1,0.84 -1.35,1.59 -0.3,0.89 0.08,1.74 0.54,2.18 0.44,0.42 1.33,0.66 1.96,0.98 0.76,0.38 -0.1,1.48 0.98,1.96 0.46,0.21 4.87,0.08 5.75,0.07 1.96,-0 3.94,-0.05 5.9,-0.03z"/>
 </g>
</svg>
